<?xml version="1.0" encoding="UTF-8" standalone="no"?>
<!DOCTYPE svg PUBLIC "-//W3C//DTD SVG 1.1//EN" "http://www.w3.org/Graphics/SVG/1.1/DTD/svg11.dtd">
<svg width="100%" height="100%" viewBox="0 0 1024 1024" version="1.1" xmlns="http://www.w3.org/2000/svg" xmlns:xlink="http://www.w3.org/1999/xlink" xml:space="preserve" xmlns:serif="http://www.serif.com/" style="fill-rule:evenodd;clip-rule:evenodd;stroke-linejoin:round;stroke-miterlimit:2;">
    <g id="Speech">
        <g id="Speech1" serif:id="Speech" transform="matrix(-1.2,0,0,1.2,1126.4,220.8)">
            <path d="M805.333,109.333L698.667,322.667L698.667,376L752,456L272,456L218.667,376L218.667,322.667L325.333,109.333L325.333,56L272,-24L752,-24L805.333,56L805.333,109.333Z" style="fill:rgb(254,255,254);"/>
        </g>
        <path d="M864,672L800,768L224,768L288,672L736,704L864,672Z"/>
        <path d="M288,256L160,288L224,192L800,192L736,288L288,256Z"/>
        <g id="Rebrand" transform="matrix(0.4,0,0,0.4,307.2,361.6)">
            <path d="M632,576L552,336L312,256L72,-24L232,-24L272,56L272,-24L712,-24L752,256L632,336L792,576L712,616L632,576Z"/>
        </g>
    </g>
</svg>
