<?xml version="1.0" encoding="UTF-8" standalone="no"?>
<!DOCTYPE svg PUBLIC "-//W3C//DTD SVG 1.1//EN" "http://www.w3.org/Graphics/SVG/1.1/DTD/svg11.dtd">
<svg width="100%" height="100%" viewBox="0 0 1024 1024" version="1.1" xmlns="http://www.w3.org/2000/svg" xmlns:xlink="http://www.w3.org/1999/xlink" xml:space="preserve" xmlns:serif="http://www.serif.com/" style="fill-rule:evenodd;clip-rule:evenodd;stroke-linejoin:round;stroke-miterlimit:2;">
    <g id="Speech">
        <path d="M640,768L384,768L192,320L384,192L640,192L832,320L640,768Z" style="fill:rgb(254,255,254);"/>
        <path d="M256,320L384,768L192,320L384,192L384,256L256,320Z"/>
        <path d="M768,320L640,768L832,320L640,192L640,256L768,320Z"/>
        <g id="Rebrand" transform="matrix(0.4,0,0,0.4,307.2,361.6)">
            <path d="M432,656L472,336L312,256L232,-64L352,-64L392,16L392,-64L792,-64L712,256L552,336L592,656L512,696L432,656Z"/>
        </g>
    </g>
</svg>
