<?xml version="1.0" encoding="UTF-8" standalone="no"?>
<!DOCTYPE svg PUBLIC "-//W3C//DTD SVG 1.1//EN" "http://www.w3.org/Graphics/SVG/1.1/DTD/svg11.dtd">
<svg width="100%" height="100%" viewBox="0 0 1024 1024" version="1.1" xmlns="http://www.w3.org/2000/svg" xmlns:xlink="http://www.w3.org/1999/xlink" xml:space="preserve" xmlns:serif="http://www.serif.com/" style="fill-rule:evenodd;clip-rule:evenodd;stroke-linejoin:round;stroke-miterlimit:2;">
    <g id="Speech">
        <g id="Speech1" serif:id="Speech" transform="matrix(-1.2,0,0,1.2,1126.4,220.8)">
            <path d="M778.667,56L725.333,376L778.667,456L298.667,456L245.333,376L298.667,56L245.333,-24L725.333,-24L778.667,56Z" style="fill:rgb(254,255,254);"/>
        </g>
        <path d="M832,672L768,768L192,768L256,672L704,704L832,672Z"/>
        <path d="M320,256L192,288L256,192L832,192L768,288L320,256Z"/>
        <g id="Rebrand" transform="matrix(0.4,0,0,0.4,307.2,361.6)">
            <path d="M432,616L472,376L272,296L192,16L272,16L312,96L312,16L832,16L752,296L552,376L592,616L512,656L432,616Z"/>
        </g>
    </g>
</svg>
