<?xml version="1.0" encoding="UTF-8" standalone="no"?>
<!DOCTYPE svg PUBLIC "-//W3C//DTD SVG 1.1//EN" "http://www.w3.org/Graphics/SVG/1.1/DTD/svg11.dtd">
<svg width="100%" height="100%" viewBox="0 0 1024 1024" version="1.1" xmlns="http://www.w3.org/2000/svg" xmlns:xlink="http://www.w3.org/1999/xlink" xml:space="preserve" xmlns:serif="http://www.serif.com/" style="fill-rule:evenodd;clip-rule:evenodd;stroke-linejoin:round;stroke-miterlimit:2;">
    <g id="Speech">
        <g id="Speech1" serif:id="Speech" transform="matrix(-1.2,0,0,1.2,1126.4,220.8)">
            <path d="M778.667,56L725.333,376L778.667,456L298.667,456L245.333,376L298.667,56L245.333,-24L725.333,-24L778.667,56Z" style="fill:rgb(254,255,254);"/>
        </g>
        <path d="M832,672L768,768L192,768L256,672L704,704L832,672Z"/>
        <path d="M320,256L192,288L256,192L832,192L768,288L320,256Z"/>
        <g id="Speech2" serif:id="Speech" transform="matrix(-1,0,0,1,1088,-32)">
            <g transform="matrix(-1.5,0,0,1,1344,64)">
                <rect x="394.667" y="352" width="234.667" height="64"/>
            </g>
            <g transform="matrix(-1.5,0,0,1,1344,64)">
                <rect x="416" y="464" width="160" height="64"/>
            </g>
        </g>
    </g>
</svg>
