<?xml version="1.0" encoding="UTF-8" standalone="no"?>
<!DOCTYPE svg PUBLIC "-//W3C//DTD SVG 1.1//EN" "http://www.w3.org/Graphics/SVG/1.1/DTD/svg11.dtd">
<svg width="100%" height="100%" viewBox="0 0 1024 1024" version="1.1" xmlns="http://www.w3.org/2000/svg" xmlns:xlink="http://www.w3.org/1999/xlink" xml:space="preserve" xmlns:serif="http://www.serif.com/" style="fill-rule:evenodd;clip-rule:evenodd;stroke-linejoin:round;stroke-miterlimit:2;">
    <g id="Speech">
        <g id="Speech1" serif:id="Speech" transform="matrix(-1.2,0,0,1.2,1126.4,220.8)">
            <path d="M805.333,109.333L698.667,322.667L698.667,376L752,456L272,456L218.667,376L218.667,322.667L325.333,109.333L325.333,56L272,-24L752,-24L805.333,56L805.333,109.333Z" style="fill:rgb(254,255,254);"/>
        </g>
        <path d="M864,672L800,768L224,768L288,672L736,704L864,672Z"/>
        <path d="M288,256L160,288L224,192L800,192L736,288L288,256Z"/>
        <g id="Testimony" transform="matrix(2.4,0,0.914286,2.4,-1479.62,-262.4)">
            <path d="M755.175,336L752,309.333L704.063,242.667L692.952,289.333L701.841,336L687.556,356L680.889,329.333L692.952,289.333L704.063,242.667L676.127,316L672.635,342.667L682.476,369.333L713.27,376L742.476,369.333L755.175,336Z"/>
        </g>
    </g>
</svg>
