<?xml version="1.0" encoding="UTF-8" standalone="no"?>
<!DOCTYPE svg PUBLIC "-//W3C//DTD SVG 1.1//EN" "http://www.w3.org/Graphics/SVG/1.1/DTD/svg11.dtd">
<svg width="100%" height="100%" viewBox="0 0 1024 1024" version="1.1" xmlns="http://www.w3.org/2000/svg" xmlns:xlink="http://www.w3.org/1999/xlink" xml:space="preserve" xmlns:serif="http://www.serif.com/" style="fill-rule:evenodd;clip-rule:evenodd;stroke-linejoin:round;stroke-miterlimit:2;">
    <g id="Speech">
        <g id="Speech1" serif:id="Speech" transform="matrix(-1.2,0,0,1.2,1126.4,220.8)">
            <path d="M778.667,56L725.333,376L778.667,456L298.667,456L245.333,376L298.667,56L245.333,-24L725.333,-24L778.667,56Z" style="fill:rgb(254,255,254);"/>
        </g>
        <path d="M832,672L768,768L192,768L256,672L704,704L832,672Z"/>
        <path d="M320,256L192,288L256,192L832,192L768,288L320,256Z"/>
        <g id="Testimony" transform="matrix(2.4,0,3.46945e-17,2.4,-1137.37,-278.4)">
            <path d="M727.238,336L713.905,302.667L687.556,256L667.238,316L673.905,342.667L686.603,362.667L667.238,356L660.571,336L667.238,316L687.556,256L658.032,302.667L647.238,336L658.032,362.667L686.603,376L713.905,362.667L727.238,336Z"/>
        </g>
    </g>
</svg>
